<svg width="118" height="113" viewBox="0 0 118 113" fill="none" xmlns="http://www.w3.org/2000/svg">
<path d="M36.0681 69.5244L54.6441 64.3935L75.9641 68.0354C75.9641 68.0354 78.795 71.0134 76.7027 74.7777C71.8375 76.5151 59.4211 81.1081 59.4211 81.1081L36.0681 76.8883C36.0681 76.8883 35.5374 76.3915 36.6869 76.1432C36.6869 74.6953 36.6869 70.1859 36.6869 70.1859C36.6869 70.1859 35.8916 70.0212 36.0681 69.5244Z" fill="#5D85BD"/>
<path d="M60.2667 80.1429C62.4359 76.5822 60.1709 73.5489 60.1709 73.5489C60.1709 73.5489 63.7139 72.393 65.5163 71.755L65.8844 71.6879C67.809 75.2109 66.3507 77.9111 66.3507 77.9111L60.2667 80.1429Z" fill="#3F5983"/>
<path d="M36.5332 70.1859V76.1432L59.2383 80.1147C59.2383 80.1147 61.5525 77.7146 59.2383 73.6607C49.6226 71.9233 36.5332 70.1859 36.5332 70.1859Z" fill="#F2F2F2"/>
<path d="M59.2383 80.1147L36.5332 76.1432V70.1859C36.5332 70.1859 43.1315 71.0617 50.399 72.1917C52.8329 73.0886 54.5735 73.7325 54.5735 73.7325L57.0767 73.2805C57.8116 73.4064 58.5338 73.5336 59.2383 73.6607C60.0097 75.0132 60.2668 76.1808 60.2668 77.1378C60.2668 79.0482 59.2383 80.1147 59.2383 80.1147Z" fill="#DAD9D7"/>
<path d="M77.9265 62.4184L59.3504 57.0179L38.0317 60.6598C38.0317 60.6598 35.2008 63.6378 37.2931 67.4022C42.1583 69.1407 54.5735 73.7325 54.5735 73.7325L77.9265 69.5127C77.9265 69.5127 78.4583 69.0159 77.3076 68.7676C77.3076 67.3198 77.3076 63.0057 77.3076 63.0057C77.3076 63.0057 78.1042 62.9151 77.9265 62.4184Z" fill="#ECB348"/>
<path d="M77.4046 68.7676L54.5003 73.031L37.9498 66.9796C37.9498 66.9796 36.412 64.3135 38.4615 61.3778C41.7285 62.5761 54.7889 66.59 54.7889 66.59L77.4046 62.9893V68.7676Z" fill="#F2F2F2"/>
<path d="M54.5003 73.031L37.9498 66.9796C37.9498 66.9796 37.3952 66.0191 37.3965 64.6172C37.3965 63.8474 37.5629 62.9445 38.0796 61.9935L42.9234 62.8692C47.9424 64.4853 54.789 66.59 54.789 66.59L54.5003 73.031Z" fill="#DAD9D7"/>
<path d="M36.6441 54.3707L55.2214 49.2409L76.5401 52.8816C76.5401 52.8816 79.371 55.8597 77.2787 59.624C72.4135 61.3625 59.9984 65.9543 59.9984 65.9543L36.6441 61.7345C36.6441 61.7345 36.1135 61.2378 37.2642 60.9894C37.2642 59.5416 37.2642 55.0322 37.2642 55.0322C37.2642 55.0322 36.4677 54.8674 36.6441 54.3707Z" fill="#47AD96"/>
<path d="M64.155 50.7664L55.2212 49.2409L64.155 50.7664Z" fill="white"/>
<path d="M37.264 55.0322C37.264 55.0322 36.6174 54.898 36.6187 54.5096C36.6187 54.466 36.6262 54.4201 36.6439 54.3707L55.2211 49.2409L64.155 50.7664L37.264 55.0322Z" fill="#62BFA9"/>
<path d="M37.1104 55.0322V60.9894L59.8142 64.9609C59.8142 64.9609 62.1296 62.562 59.8142 58.5069C50.1985 56.7696 37.1104 55.0322 37.1104 55.0322Z" fill="#F2F2F2"/>
<path d="M60.8424 64.9609C63.0116 61.4002 60.7466 58.3668 60.7466 58.3668C60.7466 58.3668 64.8467 57.0179 66.5911 56.5694C68.5599 60.1183 66.9264 62.8103 66.9264 62.8103L60.8424 64.9609Z" fill="#9EDBC8"/>
<path d="M82.7008 10.8256C82.3453 10.4278 81.9357 10.07 81.4832 9.76744C80.4043 9.04471 79.0846 8.61743 77.6541 8.61743H36.3603C34.9297 8.61743 33.6113 9.04471 32.5312 9.77097C32.0787 10.07 31.6703 10.4266 31.3149 10.8256C30.3645 11.8874 29.791 13.2622 29.791 14.7595V98.2924C29.791 99.7896 30.3595 101.156 31.3149 102.223C31.6703 102.62 32.0787 102.978 32.5312 103.281C33.6113 104.004 34.9297 104.431 36.3603 104.431H77.6541C79.0846 104.431 80.4043 104.004 81.4832 103.277C81.9357 102.978 82.3453 102.622 82.7008 102.223C83.6511 101.161 84.2246 99.7861 84.2246 98.2876V14.7559C84.2234 13.2575 83.6549 11.8921 82.7008 10.8256ZM63.4366 15.8847H65.0625C65.486 15.8847 65.8301 16.2708 65.8301 16.7464C65.8301 17.2231 65.486 17.6092 65.0625 17.6092H63.4366C63.0131 17.6092 62.669 17.2231 62.669 16.7464C62.669 16.2708 63.0131 15.8847 63.4366 15.8847ZM49.0351 15.8847H60.1456C60.6158 15.8847 60.9964 16.2708 60.9964 16.7464C60.9964 17.2231 60.6158 17.6092 60.1456 17.6092H49.0351C48.5649 17.6092 48.1843 17.2231 48.1843 16.7464C48.1843 16.2708 48.5662 15.8847 49.0351 15.8847ZM57.0072 100.517C54.1259 100.517 51.7903 98.8679 51.7903 96.8339C51.7903 94.7999 54.1259 93.1508 57.0072 93.1508C59.8885 93.1508 62.2253 94.7999 62.2253 96.8339C62.2253 98.8679 59.8898 100.517 57.0072 100.517ZM79.546 86.1413C79.546 88.5449 77.4789 90.4942 74.9291 90.4942H39.0866C36.5368 90.4942 34.4697 88.5449 34.4697 86.1413V26.907C34.4697 24.5033 36.5368 22.5541 39.0866 22.5541H74.9291C77.4789 22.5541 79.546 24.5033 79.546 26.907V86.1413Z" fill="black"/>
<path d="M43.228 40.5043V36.0596C43.228 35.9596 43.228 35.8595 43.228 35.7583C43.2305 35.6583 43.2494 35.2263 43.2835 34.4635C43.0175 35.3958 42.8222 36.0455 42.6986 36.4128L41.2819 40.5043H40.1123L38.6956 36.4128L38.1006 34.4635C38.1435 35.2675 38.1662 35.7995 38.1662 36.0596V40.5043H36.7041V33.1687H38.9073L40.3139 37.2744L40.4349 37.6699L40.7021 38.6492L41.0551 37.4769L42.497 33.1687H44.6851V40.5043H43.228Z" fill="#19254E"/>
<path d="M50.979 40.5043V33.1687H52.6276V40.5043H50.979Z" fill="#19254E"/>
<path d="M64.8018 40.5043H58.4946V39.4167L62.7448 34.3741H58.9181V33.1687H64.5698V34.2375L60.3248 39.3037H64.8018V40.5043Z" fill="#19254E"/>
<path d="M73.9247 40.6079C72.8457 40.6079 72.0189 40.3619 71.4442 39.8687C70.8694 39.3767 70.582 38.6716 70.582 37.7546V33.1687H72.2256V37.6369C72.2256 38.2149 72.3731 38.6539 72.6693 38.9553C72.9642 39.2566 73.3978 39.4073 73.97 39.4073C74.5574 39.4073 75.0099 39.2507 75.3262 38.9364C75.6413 38.6233 75.8002 38.1725 75.8002 37.5851V33.1687H77.4437V37.6793C77.4437 38.6092 77.1362 39.3296 76.5211 39.8404C75.906 40.3525 75.0401 40.6079 73.9247 40.6079Z" fill="#19254E"/>
</svg>
