<svg width="50" height="42" viewBox="0 0 50 42" fill="none" xmlns="http://www.w3.org/2000/svg">
<path fill-rule="evenodd" clip-rule="evenodd" d="M23.125 3.88257C12.6128 4.67199 4.375 12.0343 4.375 21C4.375 30.4924 13.6091 38.1875 25 38.1875C30.8034 38.1875 36.0463 36.1915 39.7962 32.9741L23.8214 22.2152C23.381 21.9186 23.125 21.4719 23.125 21V3.88257ZM26.875 3.88257V19.4375H45.5409C44.6493 11.192 36.7696 4.62561 26.875 3.88257ZM45.541 22.5625H30.303L42.1551 30.5449C44.0206 28.2217 45.2237 25.4994 45.541 22.5625ZM0.625 21C0.625 9.78172 11.5381 0.6875 25 0.6875C38.4619 0.6875 49.375 9.78172 49.375 21C49.375 25.8358 47.3448 30.2807 43.9576 33.769C39.492 38.3678 32.658 41.3125 25 41.3125C11.5381 41.3125 0.625 32.2183 0.625 21Z" fill="black"/>
</svg>
