<svg width="40" height="37" viewBox="0 0 40 37" fill="none" xmlns="http://www.w3.org/2000/svg">
<path fill-rule="evenodd" clip-rule="evenodd" d="M9.375 9.62501C9.375 4.73499 14.132 0.770844 20 0.770844C25.868 0.770844 30.625 4.73499 30.625 9.62501C30.625 14.515 25.868 18.4792 20 18.4792C14.132 18.4792 9.375 14.515 9.375 9.62501ZM20 3.89584C16.203 3.89584 13.125 6.46088 13.125 9.62501C13.125 12.7891 16.203 15.3542 20 15.3542C23.797 15.3542 26.875 12.7891 26.875 9.62501C26.875 6.46088 23.797 3.89584 20 3.89584Z" fill="black"/>
<path fill-rule="evenodd" clip-rule="evenodd" d="M10 24.7292C6.8934 24.7292 4.375 26.8278 4.375 29.4167V31.8923C4.375 31.93 4.40778 31.9621 4.45242 31.9682C14.7493 33.3691 25.2507 33.3691 35.5476 31.9682C35.5922 31.9621 35.625 31.93 35.625 31.8923V29.4167C35.625 26.8278 33.1066 24.7292 30 24.7292H29.1478C29.0819 24.7292 29.0165 24.7379 28.9538 24.7549L26.79 25.3437C22.378 26.5443 17.622 26.5443 13.21 25.3437L11.0462 24.7549C10.9835 24.7379 10.9181 24.7292 10.8522 24.7292H10ZM0.625 29.4167C0.625 25.102 4.82233 21.6042 10 21.6042H10.8522C11.3134 21.6042 11.7717 21.665 12.2102 21.7843L14.374 22.373C18.0297 23.3678 21.9703 23.3678 25.626 22.373L27.7898 21.7843C28.2283 21.665 28.6866 21.6042 29.1478 21.6042H30C35.1777 21.6042 39.375 25.102 39.375 29.4167V31.8923C39.375 33.4615 38.0103 34.7995 36.1518 35.0523C25.4548 36.5077 14.5452 36.5077 3.84818 35.0523C1.98971 34.7995 0.625 33.4615 0.625 31.8923V29.4167Z" fill="black"/>
</svg>
