<svg width="47" height="30" viewBox="0 0 47 30" fill="none" xmlns="http://www.w3.org/2000/svg">
<path fill-rule="evenodd" clip-rule="evenodd" d="M46.4269 15C46.4269 13.9299 45.4335 13.0625 44.2082 13.0625H2.7915C1.56612 13.0625 0.572754 13.9299 0.572754 15C0.572754 16.07 1.56612 16.9375 2.7915 16.9375H44.2082C45.4335 16.9375 46.4269 16.07 46.4269 15Z" fill="black"/>
<path fill-rule="evenodd" clip-rule="evenodd" d="M46.4269 2.08333C46.4269 1.01328 45.4335 0.145828 44.2082 0.145828H2.7915C1.56612 0.145828 0.572754 1.01328 0.572754 2.08333C0.572754 3.15338 1.56612 4.02083 2.7915 4.02083H44.2082C45.4335 4.02083 46.4269 3.15338 46.4269 2.08333Z" fill="black"/>
<path fill-rule="evenodd" clip-rule="evenodd" d="M46.4269 27.9167C46.4269 26.8466 45.4335 25.9792 44.2082 25.9792H2.7915C1.56612 25.9792 0.572754 26.8466 0.572754 27.9167C0.572754 28.9867 1.56612 29.8542 2.7915 29.8542H44.2082C45.4335 29.8542 46.4269 28.9867 46.4269 27.9167Z" fill="black"/>
</svg>
