<svg width="42" height="39" viewBox="0 0 42 39" fill="none" xmlns="http://www.w3.org/2000/svg">
<path fill-rule="evenodd" clip-rule="evenodd" d="M24.8947 4.52969C22.7183 2.78936 19.282 2.78936 17.1056 4.52969L5.5395 13.7783C5.25612 14.0049 5.0655 14.3001 4.99466 14.622C3.60933 20.9175 3.50708 27.3626 4.69218 33.6864L4.97349 35.1875H12.4146V22.2472C12.4146 21.3843 13.2541 20.6847 14.2896 20.6847H27.7107C28.7462 20.6847 29.5857 21.3843 29.5857 22.2472V35.1875H37.0268L37.3081 33.6864C38.4932 27.3626 38.391 20.9175 37.0056 14.622C36.9348 14.3001 36.7442 14.0049 36.4608 13.7783L24.8947 4.52969ZM14.5092 2.27486C18.1366 -0.625697 23.8637 -0.625697 27.4911 2.27486L39.0572 11.5235C39.9086 12.2043 40.4813 13.0911 40.6942 14.0583C42.1555 20.6992 42.2633 27.4979 41.0132 34.1686L40.5613 36.58C40.3744 37.5773 39.3437 38.3125 38.1325 38.3125H27.7107C26.6752 38.3125 25.8357 37.6129 25.8357 36.75V23.8097H16.1646V36.75C16.1646 37.6129 15.3252 38.3125 14.2896 38.3125H3.86781C2.6566 38.3125 1.62589 37.5773 1.439 36.58L0.987093 34.1686C-0.263028 27.4979 -0.155159 20.6992 1.30617 14.0583C1.519 13.0911 2.09171 12.2043 2.94313 11.5235L14.5092 2.27486Z" fill="black"/>
</svg>
