<svg width="41" height="32" viewBox="0 0 41 32" fill="none" xmlns="http://www.w3.org/2000/svg">
<path fill-rule="evenodd" clip-rule="evenodd" d="M25.9655 21.6736C19.892 25.4767 11.0016 25.1774 5.37151 20.7756C-0.66941 16.0527 -0.66941 8.39539 5.37151 3.67249C11.4124 -1.05042 21.2067 -1.05042 27.2476 3.67249C32.8778 8.07422 33.2606 15.0249 28.3962 19.7733L40.2112 29.0104C40.8824 29.5352 40.8824 30.386 40.2112 30.9108C39.54 31.4355 38.4517 31.4355 37.7805 30.9108L25.9655 21.6736ZM7.80219 18.8753C3.1037 15.2019 3.1037 9.24621 7.80219 5.57284C12.5007 1.89947 20.1185 1.89947 24.817 5.57284C29.512 9.24351 29.5154 15.1932 24.8273 18.8672C24.8238 18.8699 24.8204 18.8725 24.8169 18.8752C24.8135 18.8779 24.81 18.8806 24.8066 18.8834C20.1073 22.5486 12.4972 22.546 7.80219 18.8753Z" fill="black"/>
</svg>
