<svg width="54" height="40" viewBox="0 0 54 40" fill="none" xmlns="http://www.w3.org/2000/svg">
<path fill-rule="evenodd" clip-rule="evenodd" d="M26.0289 0.879236C26.6376 0.734872 27.2797 0.734739 27.8883 0.878681C29.1822 1.18466 30.4879 1.46845 31.798 1.7532C37.9501 3.0903 44.1981 4.44826 49.7569 8.22121L52.3167 9.95869C53.3551 10.6634 53.8745 11.7066 53.875 12.75V27.3333C53.875 28.1963 53.0355 28.8958 52 28.8958C50.9645 28.8958 50.125 28.1963 50.125 27.3333V17.0348L49.7177 17.3117C47.7915 18.6216 45.7819 19.6387 43.7221 20.4643C43.8205 20.6541 43.875 20.8634 43.875 21.0833V30.029C43.875 32.39 42.1369 34.5093 39.4972 35.3669L29.4972 38.6157C27.8913 39.1375 26.1087 39.1375 24.5028 38.6157L14.5028 35.3669C11.8631 34.5093 10.125 32.39 10.125 30.029V21.0833C10.125 20.8579 10.1823 20.6436 10.2855 20.45C8.20958 19.6194 6.18432 18.5964 4.24311 17.2788L1.68326 15.5413C-0.393391 14.1318 -0.394482 11.3686 1.68036 9.95766L4.28231 8.18828C9.80091 4.4355 16.0048 3.08565 22.1113 1.75699C23.4243 1.47132 24.7327 1.18662 26.0289 0.879236ZM50.125 12.7513C50.1249 12.5636 50.0339 12.4396 49.9485 12.3817L47.3887 10.6442C42 7.54168 37.1984 6.17333 31.0997 4.83784C29.7588 4.54419 28.3798 4.24222 26.9599 3.90748C25.5337 4.24464 24.1497 4.54805 22.8043 4.84303C16.7545 6.16935 11.4831 7.32503 6.6532 10.6095L4.05126 12.3788C3.96578 12.437 3.87491 12.5611 3.875 12.7488C3.87509 12.9365 3.96608 13.0604 4.05146 13.1183L6.61131 14.8558C11.4821 18.1618 16.8016 19.3267 22.9003 20.6622C24.2413 20.9558 25.6202 21.2578 27.0401 21.5925C28.4662 21.2554 29.85 20.952 31.1954 20.6571C37.2452 19.3307 42.5169 18.175 47.3468 14.8906L49.9487 13.1212C50.0341 13.0631 50.1249 12.9386 50.125 12.7513ZM31.8887 23.743C34.6382 23.1448 37.4074 22.5422 40.125 21.718V30.029C40.125 31.1022 39.335 32.0655 38.1351 32.4553L28.1351 35.7042C27.4051 35.9413 26.5949 35.9413 25.8649 35.7042L15.8649 32.4553C14.665 32.0655 13.875 31.1022 13.875 30.029V21.7003C16.6219 22.534 19.4217 23.1426 22.2019 23.7468C23.5121 24.0316 24.8178 24.3154 26.1117 24.6213C26.7203 24.7653 27.3624 24.7651 27.9711 24.6208C29.2672 24.3134 30.5758 24.0287 31.8887 23.743Z" fill="black"/>
</svg>
